<svg xmlns="http://www.w3.org/2000/svg" viewBox="0 0 409.61 409.61"><defs><style>.cls-1{fill:#3c2b64;}.cls-2{fill:#221838;}.cls-3{fill:#a87eb7;}</style></defs><title>ae</title><g id="Capa_2" data-name="Capa 2"><g id="Capa_1-2" data-name="Capa 1"><path class="cls-1" d="M409.61,204.8c0,113.11-91.7,204.81-204.8,204.81S0,317.91,0,204.8,91.69,0,204.8,0s204.8,91.69,204.8,204.8Zm0,0"/><path class="cls-2" d="M296.52,157.05q-25.08,0-41.48,17.77a55.56,55.56,0,0,0-8.17,11.57l-74.49-74.49h-37.2L67.32,286.11l123,123c4.79.34,9.63.52,14.51.52,100.78,0,184.55-72.8,201.62-168.68l-68.87-68.87,0,0q-15.71-15-41-15Zm0,0"/><path class="cls-3" d="M242.14,286.11H203.87l-15.21-39.57H119l-14.38,39.57H67.32l67.86-174.22h37.2Zm-64.77-68.93-24-64.65-23.53,64.65Zm0,0"/><path class="cls-3" d="M321.48,245.94l33.28,5.59q-6.42,18.3-20.26,27.87T299.85,289q-32.92,0-48.72-21.51-12.48-17.23-12.48-43.5,0-31.37,16.4-49.14t41.48-17.77q28.17,0,44.45,18.6t15.57,57H272.87q.36,14.86,8.08,23.11A25.27,25.27,0,0,0,300.2,264a20.43,20.43,0,0,0,13.19-4.28q5.35-4.28,8.08-13.78Zm1.9-33.75q-.36-14.5-7.49-22a24.1,24.1,0,0,0-35.41.41q-7.13,8-7,21.63Zm0,0"/></g></g></svg>