<svg xmlns="http://www.w3.org/2000/svg" viewBox="0 0 409.6 409.6"><defs><style>.cls-1{fill:#5e3c16;}.cls-2{fill:#472e11;}.cls-3{fill:#df871e;}</style></defs><title>ai</title><g id="Capa_2" data-name="Capa 2"><g id="Capa_1-2" data-name="Capa 1"><path class="cls-1" d="M409.6,204.8c0,113.1-91.7,204.8-204.8,204.8S0,317.91,0,204.8,91.69,0,204.8,0,409.6,91.69,409.6,204.8Zm0,0"/><path class="cls-2" d="M409,188.76l-82.87-82.87H288.33v35l19.36,19.36H288.33v31.68l-86-86H160.26L83.5,303,189.55,409q7.55.56,15.25.57c113.1,0,204.8-91.7,204.8-204.8q0-8.1-.63-16Zm0,0"/><path class="cls-3" d="M281.26,303H238l-17.21-44.77H142L125.71,303H83.5l76.77-197.09h42.08ZM208,225l-27.16-73.14L154.21,225Zm0,0"/><path class="cls-3" d="M288.33,140.84v-35h37.78v35Zm0,162.14V160.2h37.78V303H288.33Zm0,0"/></g></g></svg>