<svg xmlns="http://www.w3.org/2000/svg" viewBox="0 0 409.6 409.6"><defs><style>.cls-1{fill:#225257;}.cls-2{fill:#11292b;}.cls-3{fill:#4ab6bf;}</style></defs><title>au</title><g id="Capa_2" data-name="Capa 2"><g id="Capa_1-2" data-name="Capa 1"><path class="cls-1" d="M409.6,204.8c0,113.1-91.7,204.8-204.8,204.8S0,317.91,0,204.8,91.69,0,204.8,0,409.6,91.69,409.6,204.8Zm0,0"/><path class="cls-2" d="M407.45,234.53l-67-67h-30.7v44.13l-44.14-44.13h-30.7v25.08l-69.22-69.22H131.52L69.14,283.57,194.93,409.36q2.45.12,4.91.18c1.65,0,3.31.06,5,.06,103,0,188.24-76.06,202.64-175.07Zm0,0"/><path class="cls-3" d="M229.84,283.57H194.66l-14-36.38h-64l-13.22,36.38H69.14l62.38-160.16h34.19ZM170.3,220.2l-22.07-59.43L126.6,220.2Zm0,0"/><path class="cls-3" d="M311.95,283.57V266.2a44.66,44.66,0,0,1-16.66,14.64,46.74,46.74,0,0,1-21.79,5.36,42.61,42.61,0,0,1-21-5.14,30.3,30.3,0,0,1-13.44-14.42q-4.16-9.28-4.15-25.67V167.55h30.7v53.31q0,24.48,1.69,30a16.34,16.34,0,0,0,6.17,8.74,19,19,0,0,0,11.36,3.22,24.17,24.17,0,0,0,14.09-4.31,22,22,0,0,0,8.52-10.71c2.86-7.95,2.29-30.49,2.29-80.25h30.7v116Zm0,0"/></g></g></svg>