<svg xmlns="http://www.w3.org/2000/svg" viewBox="0 0 44.58 125.82"><defs><style>.cls-1{fill:#e57017;}</style></defs><title>comillader</title><g id="Capa_2" data-name="Capa 2"><g id="MOCKUP"><g id="pagina2"><path class="cls-1" d="M6.26,17.91,15,42l4,11.13c1.44,4,3.5,8.33,3.57,12.61.12,7.68-6.27,15.58-9.93,22L.41,109.33c-1.91,3.36,3.27,6.39,5.18,3L18.74,89.17c3.74-6.6,9.15-13.83,9.75-21.64.62-8.15-4-16.84-6.74-24.31L12,16.31c-1.3-3.6-7.1-2-5.79,1.6Z"/><path class="cls-1" d="M17.65,3.64l11,30.49L34,48.91c1.79,5,4.32,10.3,4.56,15.66C39,74.5,31,84.53,26.26,92.8L10.09,121.33c-1.91,3.36,3.27,6.39,5.18,3L32.4,94.15C37.19,85.7,44.23,76.4,44.57,66.31s-5.44-20.78-8.79-30.08L23.44,2c-1.3-3.6-7.1-2-5.79,1.6Z"/></g></g></g></svg>