<svg xmlns="http://www.w3.org/2000/svg" viewBox="0 0 149.88 134.9"><defs><style>.cls-1{fill:#004380;}.cls-2{fill:#cb6f2d;}</style></defs><title>diseño</title><g id="Capa_2" data-name="Capa 2"><g id="MOCKUP"><g id="pagina3"><path class="cls-1" d="M1.26,134.58a2.48,2.48,0,0,0,3.38-.94L75.79,7.56c71.2,128.67,67.77,121.9,68.08,122.53,2.12,4.14,3.33,4,5.12,3.14,0,0,2-1,0-4L77.92,1.17a2.48,2.48,0,0,0-4.27.09L.32,131.2a2.48,2.48,0,0,0,.94,3.38Z"/><path class="cls-2" d="M80.17,72.52a9.62,9.62,0,1,1-5.89,0l-.15-39.74L42.48,92.05c11.53,9,19.27,21.24,22.71,37.13l24.5-.1c3.31-15.88,10.94-28.18,22.42-37.3L80,32.79Z"/></g></g></g></svg>