<svg xmlns="http://www.w3.org/2000/svg" viewBox="0 0 30.21 28.86"><defs><style>.cls-1{fill:#007ab9;}</style></defs><title>in</title><g id="Capa_2" data-name="Capa 2"><g id="Design"><path class="cls-1" d="M30.21,17.7V28.38a.48.48,0,0,1-.48.48H24.22a.48.48,0,0,1-.48-.48V18.45c0-2.61-.93-4.4-3.28-4.4a3.54,3.54,0,0,0-3.32,2.37A4.43,4.43,0,0,0,16.94,18V28.38a.48.48,0,0,1-.48.48H10.95a.48.48,0,0,1-.48-.48c0-2.64.07-15.48,0-18.49A.48.48,0,0,1,11,9.4h5.5a.48.48,0,0,1,.48.48v2.28l0,.06h0v-.06a6.42,6.42,0,0,1,5.83-3.21c4.26,0,7.45,2.78,7.45,8.76ZM.9,28.86H6.41a.48.48,0,0,0,.48-.48V9.88a.48.48,0,0,0-.48-.48H.9a.48.48,0,0,0-.48.48v18.5A.48.48,0,0,0,.9,28.86Z"/><circle class="cls-1" cx="3.46" cy="3.46" r="3.46"/></g></g></svg>