<svg xmlns="http://www.w3.org/2000/svg" viewBox="0 0 409.61 409.61"><defs><style>.cls-1{fill:#3e2d66;}.cls-2{fill:#251b3d;}.cls-3{fill:#8c5ba4;}</style></defs><title>pr</title><g id="Capa_2" data-name="Capa 2"><g id="Capa_1-2" data-name="Capa 1"><path class="cls-1" d="M409.61,204.8c0,113.11-91.7,204.81-204.8,204.81S0,317.91,0,204.8,91.69,0,204.8,0s204.8,91.69,204.8,204.8Zm0,0"/><path class="cls-2" d="M294.41,161.64a36.3,36.3,0,0,0-7.78,7.17l-8.52-8.52h-31L209.77,122.9a50.81,50.81,0,0,0-24.16-14.3q-11.1-3-47.63-3H73.72V304L177.53,407.79a206.52,206.52,0,0,0,27.27,1.81c102.63,0,187.62-75.5,202.49-174l-71.41-71.41a48.25,48.25,0,0,0-25-7.17,30,30,0,0,0-16.44,4.6Zm0,0"/><path class="cls-3" d="M73.72,304V105.62H138q36.53,0,47.63,3,17.05,4.47,28.55,19.41t11.5,38.63q0,18.26-6.63,30.71a54.44,54.44,0,0,1-16.85,19.55,58.11,58.11,0,0,1-20.77,9.4q-14.34,2.84-41.54,2.84H113.77V304Zm40.05-164.8v56.28h21.92q23.68,0,31.66-3.11a26.29,26.29,0,0,0,12.51-9.74,26.65,26.65,0,0,0,4.53-15.43q0-10.82-6.36-17.86a27.72,27.72,0,0,0-16.1-8.79q-7.17-1.35-28.82-1.36H113.77Zm0,0"/><path class="cls-3" d="M280.81,304h-38V160.29h35.31v20.43q9.06-14.47,16.3-19.08a30,30,0,0,1,16.44-4.6,48.28,48.28,0,0,1,25,7.17l-11.77,33.15q-9.61-6.22-17.86-6.23a21.1,21.1,0,0,0-13.53,4.4q-5.55,4.4-8.73,15.9t-3.18,48.17Zm0,0"/></g></g></svg>