<svg xmlns="http://www.w3.org/2000/svg" viewBox="0 0 409.6 409.6"><defs><style>.cls-1{fill:#2a4997;}.cls-2{fill:#263364;}.cls-3{fill:#76c8da;}</style></defs><title>ps</title><g id="Capa_2" data-name="Capa 2"><g id="Capa_1-2" data-name="Capa 1"><path class="cls-1" d="M409.6,204.8c0,113.1-91.7,204.8-204.8,204.8S0,317.91,0,204.8,91.69,0,204.8,0,409.6,91.69,409.6,204.8Zm0,0"/><path class="cls-2" d="M273.62,160.47q-24.53,0-37.62,9l-39.5-39a45.31,45.31,0,0,0-21.86-13.12c-12.14-3.25-41.13-2.65-99.62-2.65v176.6l118,118c3.91.22,7.84.35,11.81.35,94.77,0,174.49-64.38,197.86-151.79l-83.53-83.53h0c-10.58-10.68-26.38-13.83-45.5-13.83Zm0,0"/><path class="cls-3" d="M75,291.29V114.69c58.49,0,87.48-.6,99.62,2.65q15.18,4,25.42,17.29c13.22,17.2,12.64,46.14,4.34,61.73a50.23,50.23,0,0,1-33.49,25.78c-15.67,3.1-38.87,2.53-60.23,2.53v66.62Zm35.66-146.72v50.11c36.13,0,50.22,1.17,58.84-11.45,5.73-8.37,5.61-21.63-1.62-29.63-9-10-18.91-9-57.22-9Zm0,0"/><path class="cls-3" d="M215.07,254.79l34-5.18c3.16,14.4,12.87,20.12,27.34,20.12,11,0,24.21-2.77,24.21-13.86,0-7.45-6.23-9.09-13.73-10.84q-41-9-51.92-16.5-15.18-10.36-15.18-28.79,0-16.62,13.13-27.95t40.72-11.32c27.95,0,48.8,6.71,56.61,33.85l-31.92,5.9a19.73,19.73,0,0,0-7.77-11.44c-8.72-6.06-28.73-4.59-35.48-.24-4.81,3.31-5.36,9.36-.48,13,9.8,7.23,51.68,9.86,69.39,24.57q10.6,9,10.6,25.18,0,17.59-14.7,30.23t-43.48,12.65q-26.14,0-41.38-10.6a48.84,48.84,0,0,1-19.94-28.79Zm0,0"/></g></g></svg>