<svg xmlns="http://www.w3.org/2000/svg" viewBox="0 0 151.49 158.49"><defs><style>.cls-1{fill:#2c2e36;}.cls-2{fill:#e57017;}.cls-3{fill:#231f20;}.cls-4{fill:#004380;stroke:#000;stroke-miterlimit:10;stroke-width:0.25px;}.cls-5{fill:#525760;}.cls-6{fill:#f9dfb8;}</style></defs><title>video</title><g id="Capa_2" data-name="Capa 2"><g id="MOCKUP"><g id="pagina3"><rect class="cls-1" x="6.81" y="59.84" width="140.1" height="98.65" rx="4.61" ry="4.61"/><rect class="cls-2" x="23.03" y="139.3" width="104.63" height="1.46"/><rect class="cls-2" x="99.34" y="140.76" width="1.47" height="11.71"/><rect class="cls-2" x="49.9" y="140.76" width="1.47" height="11.71"/><path class="cls-3" d="M75.7,76.56a26.67,26.67,0,1,0,26.66,26.67A26.67,26.67,0,0,0,75.7,76.56Zm0,49.74a23.07,23.07,0,1,1,23.07-23.07A23.07,23.07,0,0,1,75.7,126.29Z"/><path class="cls-2" d="M49.52,103.22A26.18,26.18,0,1,0,75.7,77,26.21,26.21,0,0,0,49.52,103.22Zm2.63,0A23.55,23.55,0,1,1,75.7,126.77,23.58,23.58,0,0,1,52.15,103.22Z"/><path class="cls-3" d="M91.22,104.74c1.45-.84,1.45-2.21,0-3l-8.79-5.08-5.27-3L68.37,88.5c-1.45-.84-2.64-.15-2.64,1.53v26.39c0,1.67,1.19,2.36,2.64,1.52l8.79-5.07,5.27-3Z"/><path class="cls-4" d="M66.75,88.74A1.42,1.42,0,0,0,66.21,90v26.39a1.14,1.14,0,0,0,1.91,1.1l8.79-5.07L91,104.33a1.14,1.14,0,0,0,0-2.21L68.13,88.92A1.42,1.42,0,0,0,66.75,88.74Z"/><polygon class="cls-2" points="129.26 3.08 149.25 18.71 149.27 18.86 131.43 22 111.28 6.25 129.26 3.08"/><polygon class="cls-2" points="55.17 16.12 75.3 31.87 57.33 35.03 37.19 19.28 55.17 16.12"/><polygon class="cls-2" points="18.12 22.64 38.26 38.38 20.29 41.55 0.14 25.8 18.12 22.64"/><polygon class="cls-2" points="92.21 9.6 112.35 25.35 94.38 28.51 74.24 12.76 92.21 9.6"/><polygon class="cls-4" points="145.97 0.14 149.25 18.71 129.26 3.08 145.97 0.14"/><polygon class="cls-4" points="111.28 6.25 131.43 22 112.35 25.35 92.21 9.6 111.28 6.25"/><polygon class="cls-4" points="74.24 12.76 94.38 28.51 75.3 31.87 55.17 16.12 74.24 12.76"/><polygon class="cls-4" points="37.19 19.28 57.33 35.03 38.26 38.38 18.12 22.64 37.19 19.28"/><polygon class="cls-1" points="0 25.82 0.14 25.8 20.29 41.55 3.3 44.53 0 25.82"/><polygon class="cls-5" points="2.96 27.97 0.46 28.41 0.17 26.78 1.2 26.6 2.96 27.97"/><polygon class="cls-6" points="20.13 44.55 3.15 63.4 3.15 63.55 21.27 63.55 38.37 44.55 20.13 44.55"/><polygon class="cls-2" points="95.36 44.55 78.25 63.55 96.5 63.55 113.61 44.55 95.36 44.55"/><polygon class="cls-2" points="132.97 44.55 115.87 63.55 134.12 63.55 151.22 44.55 132.97 44.55"/><polygon class="cls-2" points="57.74 44.55 40.63 63.55 58.88 63.55 75.99 44.55 57.74 44.55"/><polygon class="cls-4" points="38.37 44.55 21.27 63.55 40.63 63.55 57.74 44.55 38.37 44.55"/><polygon class="cls-4" points="75.99 44.55 58.88 63.55 78.25 63.55 95.36 44.55 75.99 44.55"/><polygon class="cls-4" points="113.61 44.55 96.5 63.55 115.87 63.55 132.97 44.55 113.61 44.55"/><polygon class="cls-4" points="151.37 44.55 151.22 44.55 134.12 63.55 151.37 63.55 151.37 44.55"/><polygon class="cls-5" points="148.82 47.18 151.37 47.18 151.37 45.52 150.32 45.52 148.82 47.18"/><path class="cls-5" d="M11.79,23.23l-4.49.31c-3.86.26-7,3.92-7,8.15V56.8c0,4.35,3.23,7.89,7.22,7.89h23c4,0,7.22-3.54,7.22-7.89V54.45a22.09,22.09,0,0,0-2.67-9.86l-.17-.28L20.45,27.68l.37.52A10.47,10.47,0,0,0,11.79,23.23Z"/><path class="cls-1" d="M7.51,27.11a4.51,4.51,0,0,0-3.93,4.57V56.8a4.15,4.15,0,0,0,3.94,4.3h23a4.14,4.14,0,0,0,3.94-4.3V54.45a18.33,18.33,0,0,0-2.14-7.91L18.07,30.14A7.27,7.27,0,0,0,12,26.8Z"/><ellipse class="cls-2" cx="10.88" cy="33.59" rx="2.62" ry="2.86"/><ellipse class="cls-2" cx="10.88" cy="55.09" rx="2.62" ry="2.86"/><path class="cls-2" d="M30.85,55.09a2.63,2.63,0,1,1-2.61-2.86A2.75,2.75,0,0,1,30.85,55.09Z"/><rect class="cls-2" x="23.03" y="67.67" width="102.84" height="0.93"/><ellipse class="cls-6" cx="10.58" cy="33.11" rx="1.26" ry="1.43"/><ellipse class="cls-6" cx="10.54" cy="54.6" rx="1.04" ry="1.2"/><circle class="cls-6" cx="27.88" cy="54.55" r="1.19"/></g></g></g></svg>