<svg xmlns="http://www.w3.org/2000/svg" viewBox="0 0 34.6 34.6"><defs><style>.cls-1{fill:#60fc7c;fill-rule:evenodd;}</style></defs><title>wa</title><g id="Capa_2" data-name="Capa 2"><g id="Design"><path class="cls-1" d="M17.3,0A17.3,17.3,0,0,0,2.76,26.67L.14,32.46a1.51,1.51,0,0,0,1.78,2.08l7.24-2A17.3,17.3,0,1,0,17.3,0Zm0,31.58a14.26,14.26,0,0,1-7.19-1.94,1.51,1.51,0,0,0-1.16-.15l-4.73,1.3,1.65-3.63a1.51,1.51,0,0,0-.15-1.51A14.27,14.27,0,1,1,17.3,31.58Z"/><path class="cls-1" d="M23.95,19.89a3,3,0,0,0-2.52-.57c-.65.27-1.07,1.29-1.5,1.82a.63.63,0,0,1-.81.18,11.42,11.42,0,0,1-5.7-4.88.7.7,0,0,1,.09-1,3.85,3.85,0,0,0,1-1.68,3.67,3.67,0,0,0-.46-2A4.72,4.72,0,0,0,12.61,9.6a2,2,0,0,0-2.19.32,4.44,4.44,0,0,0-1.54,3.51A5,5,0,0,0,9,14.55,9.23,9.23,0,0,0,10.1,17a19.44,19.44,0,0,0,1.12,1.7,17.24,17.24,0,0,0,4.84,4.5,14.65,14.65,0,0,0,3,1.44,6.71,6.71,0,0,0,3.52.56,4.26,4.26,0,0,0,3.19-2.37,2.06,2.06,0,0,0,.15-1.21C25.75,20.79,24.62,20.29,23.95,19.89Z"/></g></g></svg>